<svg width="148" height="148" viewBox="0 0 148 148" fill="none" xmlns="http://www.w3.org/2000/svg">
  <path
    d="M41.656 44.992H37.144C36.696 46.848 35.512 48.224 33.304 48.224C32.088 48.224 31.096 47.776 30.456 47.04C29.624 46.08 29.336 44.96 29.336 40.608C29.336 36.256 29.624 35.136 30.456 34.176C31.096 33.44 32.088 32.992 33.304 32.992C35.512 32.992 36.664 34.368 37.112 36.224H41.656C40.824 31.456 37.56 29.024 33.304 29.024C30.68 29.024 28.76 29.888 27.192 31.424C24.92 33.696 24.888 36.256 24.888 40.608C24.888 44.96 24.92 47.52 27.192 49.792C28.76 51.328 30.68 52.192 33.304 52.192C37.528 52.192 40.824 49.76 41.656 44.992ZM65.7873 52L57.4673 29.216H53.9792L45.6913 52H50.3313L51.7073 47.968H59.8033L61.1473 52H65.7873ZM58.6193 44.224H52.9553L55.8353 35.936L58.6193 44.224ZM88.8415 52L83.7535 42.176C85.9615 41.376 87.9135 39.392 87.9135 36.192C87.9135 32.384 85.1615 29.216 80.5215 29.216H71.5935V52H76.0415V42.912H79.2415L83.6895 52H88.8415ZM83.4655 36.192C83.4655 37.952 82.1855 39.2 80.2335 39.2H76.0415V33.184H80.2335C82.1855 33.184 83.4655 34.432 83.4655 36.192ZM40.376 115.28C40.376 113.232 39.832 111.6 38.616 110.48C37.624 109.52 36.344 108.976 34.264 108.688L31.544 108.272C30.584 108.144 29.912 107.824 29.464 107.408C28.984 106.96 28.824 106.384 28.824 105.776C28.824 104.208 29.944 102.896 32.312 102.896C33.816 102.896 35.576 103.088 36.984 104.464L39.8 101.68C37.848 99.792 35.576 99.024 32.44 99.024C27.512 99.024 24.504 101.872 24.504 105.936C24.504 107.856 25.048 109.36 26.136 110.416C27.16 111.408 28.536 112.016 30.552 112.304L33.272 112.72C34.424 112.88 34.872 113.072 35.32 113.488C35.8 113.968 36.024 114.608 36.024 115.376C36.024 117.2 34.616 118.224 31.96 118.224C29.88 118.224 27.928 117.744 26.488 116.304L23.608 119.184C25.848 121.456 28.472 122.192 31.928 122.192C36.728 122.192 40.376 119.696 40.376 115.28ZM65.1623 122L56.8423 99.216H53.3542L45.0663 122H49.7063L51.0823 117.968H59.1783L60.5223 122H65.1623ZM57.9943 114.224H52.3303L55.2103 105.936L57.9943 114.224ZM85.7525 122V118.032H75.4165V99.216H70.9685V122H85.7525ZM107.383 122V118.032H96.8228V112.496H105.815V108.528H96.8228V103.184H107.383V99.216H92.3748V122H107.383Z"
    fill="#212121"/>
  <path
    d="M41.72 75.608C41.72 71.256 41.656 68.696 39.384 66.424C37.848 64.888 35.928 64.024 33.304 64.024C30.68 64.024 28.728 64.888 27.192 66.424C24.92 68.696 24.888 71.256 24.888 75.608C24.888 79.96 24.92 82.52 27.192 84.792C28.728 86.328 30.68 87.192 33.304 87.192C35.928 87.192 37.848 86.328 39.384 84.792C41.656 82.52 41.72 79.96 41.72 75.608ZM37.272 75.608C37.272 79.96 36.984 81.016 36.152 81.976C35.512 82.712 34.52 83.224 33.304 83.224C32.088 83.224 31.096 82.712 30.424 81.976C29.592 81.016 29.336 79.96 29.336 75.608C29.336 71.256 29.592 70.168 30.424 69.208C31.096 68.472 32.088 67.992 33.304 67.992C34.52 67.992 35.512 68.472 36.152 69.208C36.984 70.168 37.272 71.256 37.272 75.608ZM66.6898 87V64.216H62.2418V78.168L53.2178 64.216H49.2498V87H53.6978V73.016L62.7218 87H66.6898Z"
    fill="#FDC02F"/>
  <rect x="1" y="1" width="146" height="146" stroke="#FDC02F" stroke-width="2"/>
</svg>
